PathFileType	4	(X/Y/Z)	/Users/mathieubourgeois/Desktop/Analyse/Traitement/Sujet_05/Transformed_Static_Sujet_05_Tpose.trc
DataRate	CameraRate	NumFrames	NumMarkers	Units	OrigDataRate	OrigDataStartFrame	OrigNumFrames
120.000000	120.000000	4	36	mm	120.000000	145	232
Frame#	Time	RFHD			RANE			STRN			LANI			LKNE			T10			RHUM			RWRB			C7			LFWT			LTOE			RTOE			LWRA			LBWT			RBWT			RFWT			LKNI			RKNI			RKNE			LANE			RANI			LHEE			RHEE			LHUM			LRAD			RRAD			RWRA			LWRB			LFHD			LBHD			RBHD			RSHO			LSHO			CLAV			LCAR			RCAR			
		X1	Y1	Z1	X2	Y2	Z2	X3	Y3	Z3	X4	Y4	Z4	X5	Y5	Z5	X6	Y6	Z6	X7	Y7	Z7	X8	Y8	Z8	X9	Y9	Z9	X10	Y10	Z10	X11	Y11	Z11	X12	Y12	Z12	X13	Y13	Z13	X14	Y14	Z14	X15	Y15	Z15	X16	Y16	Z16	X17	Y17	Z17	X18	Y18	Z18	X19	Y19	Z19	X20	Y20	Z20	X21	Y21	Z21	X22	Y22	Z22	X23	Y23	Z23	X24	Y24	Z24	X25	Y25	Z25	X26	Y26	Z26	X27	Y27	Z27	X28	Y28	Z28	X29	Y29	Z29	X30	Y30	Z30	X31	Y31	Z31	X32	Y32	Z32	X33	Y33	Z33	X34	Y34	Z34	X35	Y35	Z35	X36	Y36	Z36	

146	1.208333333333333	-718.2936401367188	1632.39794921875	360.3685302734373	-822.872802734375	75.53225708007814	193.7256011962889	-630.3840942382812	1204.13525390625	372.1065673828124	-536.8185424804688	83.62694549560548	227.3568878173828	-464.5509338378907	480.49951171875	256.3251647949218	-644.2890625	1205.060424804688	147.9134368896483	-1065.513061523438	1356.922241210938	227.590621948242	-1300.610107421875	1432.663818359375	280.9867858886716	-643.8507690429688	1435.200439453125	191.044464111328	-512.0298461914062	929.7487182617188	336.4578552246093	-472.4859313964844	34.31343078613283	385.5715332031249	-829.7966918945312	37.07316970825197	391.3208923339843	45.80008697509763	1375.041137695312	244.274932861328	-583.1835327148438	958.0905151367188	165.7272033691405	-716.7329711914062	958.6986083984375	171.134078979492	-751.919921875	922.059326171875	345.9216003417967	-567.7890625	446.0114135742188	245.6707153320312	-703.0532836914062	426.3477783203125	261.4362182617186	-800.225830078125	476.1094055175781	262.5226135253905	-463.7980651855469	87.15010833740236	186.3018035888671	-747.3614501953125	74.00041961669923	239.6476593017577	-511.4847412109375	44.46107482910157	142.1894378662109	-771.9804077148438	38.20072174072266	147.5222167968749	-208.9248504638672	1377.42041015625	201.1559448242186	-220.189453125	1329.21337890625	253.3672943115233	-1058.623901367188	1318.78857421875	288.603057861328	-1313.204345703125	1363.530517578125	263.0829772949216	32.56441879272458	1444.26513671875	247.9548797607421	-569.8113403320312	1645.3603515625	361.031768798828	-555.9124145507812	1574.482299804688	224.5430297851561	-691.1810913085938	1567.321166992188	200.9510498046873	-791.9105834960938	1440.977905273438	240.7266845703123	-503.3741149902344	1441.379272460938	227.6252288818358	-641.0452880859375	1379.564819335938	324.1859130859374	117.2463760375976	1428.241455078125	217.6997375488281	-1394.43798828125	1409.614990234375	241.6391296386716	
147	1.216666666666667	-718.2821655273438	1632.3271484375	360.5396423339841	-822.8705444335938	75.5327606201172	193.7384185791014	-630.4285888671875	1204.10693359375	372.1283264160155	-536.8245239257812	83.6414260864258	227.3653411865234	-464.5820617675782	480.4890747070312	256.364288330078	-644.2868041992188	1205.088012695312	147.9463958740233	-1065.51220703125	1356.885620117188	227.6329498291013	-1300.61572265625	1432.581298828125	281.0290527343747	-643.826171875	1435.205810546875	191.1258850097655	-512.0462646484375	929.7499389648438	336.4802856445311	-472.4894714355469	34.31686782836916	385.5828552246093	-829.796875	37.06785202026369	391.331573486328	45.80973052978513	1374.85400390625	244.3863983154296	-583.216552734375	958.0970458984375	165.7624664306639	-716.7528076171875	958.7156982421875	171.1603546142577	-751.9406127929688	922.0643920898438	345.9509277343748	-567.8026123046875	446.0041809082031	245.6971435546874	-703.0628662109375	426.3474426269531	261.4571228027343	-800.2418212890625	476.11572265625	262.5474243164061	-463.7975158691406	87.17119598388673	186.3089752197265	-747.363525390625	73.9878616333008	239.6568145751952	-511.4837951660156	44.45820617675782	142.1804809570312	-771.9747924804688	38.21654891967774	147.5300903320312	-208.9020385742188	1377.333618164062	201.2219085693358	-220.1919860839844	1329.09326171875	253.4398040771483	-1058.60986328125	1318.763427734375	288.6575927734373	-1313.186645507812	1363.452758789062	263.0880126953123	32.60148620605466	1444.074951171875	248.0738983154296	-569.8114624023438	1645.33447265625	361.1618347167967	-555.9164428710938	1574.523803710938	224.6426544189452	-691.191162109375	1567.362060546875	201.0578613281248	-791.8941650390625	1440.9990234375	240.7877502441405	-503.3458862304688	1441.350708007812	227.7024078369139	-641.0354614257812	1379.549560546875	324.2413940429686	117.2699508666992	1428.040893554688	217.8035888671874	-1394.416748046875	1409.5322265625	241.6359710693357	
148	1.225	-718.2716064453125	1632.268188476562	360.6820983886716	-822.8660888671875	75.54182434082033	193.7276306152343	-630.4601440429688	1204.085327148438	372.1522521972655	-536.8262939453125	83.64870452880861	227.3763580322265	-464.5969848632813	480.4918212890625	256.3698730468749	-644.2842407226562	1205.11767578125	147.9829101562498	-1065.495727539062	1356.85205078125	227.6889190673826	-1300.615478515625	1432.511474609375	281.0494079589841	-643.77978515625	1435.227294921875	191.1893157958983	-512.07958984375	929.7422485351562	336.5059814453124	-472.4917602539063	34.3208694458008	385.5753173828124	-829.7936401367188	37.07114791870119	391.3254089355468	45.8193435668945	1374.684814453125	244.4570007324218	-583.2451782226562	958.1041870117188	165.773468017578	-716.771484375	958.7129516601562	171.1844635009764	-751.9646606445312	922.059814453125	345.9760742187498	-567.8206787109375	446.0100402832031	245.7163543701171	-703.07763671875	426.3504943847656	261.4676208496093	-800.253173828125	476.1080322265625	262.5733337402342	-463.81298828125	87.17873382568361	186.2930755615234	-747.3731689453125	73.99639129638673	239.656524658203	-511.4814453125	44.47108840942384	142.1829681396484	-771.9727172851562	38.22616577148438	147.5265197753905	-208.8815460205078	1377.206420898438	201.3015289306639	-220.1944580078125	1328.991577148438	253.5116882324218	-1058.595947265625	1318.740112304688	288.7059936523436	-1313.181274414062	1363.388549804688	263.1287841796873	32.62987899780271	1443.897338867188	248.2128295898437	-569.8045043945312	1645.309326171875	361.2897033691405	-555.9335327148438	1574.575561523438	224.7186279296874	-691.205322265625	1567.402954101562	201.176071166992	-791.888671875	1440.997802734375	240.8389587402342	-503.3230895996094	1441.317993164062	227.7738800048827	-641.03271484375	1379.538330078125	324.297882080078	117.3032531738281	1427.830322265625	217.8981781005859	-1394.408935546875	1409.428588867188	241.6262664794919	
149	1.233333333333333	-718.2617797851562	1632.201538085938	360.8363342285154	-822.8683471679688	75.53055572509767	193.7201080322264	-630.494140625	1204.051391601562	372.1766357421874	-536.8275756835938	83.64409637451173	227.3739929199218	-464.6061706542969	480.4892883300781	256.3920288085936	-644.2659301757812	1205.124633789062	148.0276641845701	-1065.491333007812	1356.843017578125	227.717086791992	-1300.626953125	1432.427612304688	281.0816345214841	-643.7696533203125	1435.2451171875	191.2320861816405	-512.0977172851562	929.7467041015625	336.5490417480468	-472.4878540039063	34.31586074829104	385.5798339843749	-829.8040161132812	37.07641220092776	391.3326721191405	45.8269348144531	1374.498046875	244.5255737304687	-583.2561645507812	958.1183471679688	165.8205718994139	-716.7899780273438	958.7217407226562	171.2071075439452	-751.9916381835938	922.0579833984375	345.9920349121092	-567.837158203125	446.0093383789062	245.7288055419921	-703.087646484375	426.3566589355469	261.4908752441405	-800.2617797851562	476.1221008300781	262.5983276367186	-463.8113708496094	87.17355346679689	186.2957305908203	-747.3792724609375	74.00710296630861	239.654067993164	-511.4836730957031	44.47644424438477	142.191909790039	-771.9727172851562	38.23461151123048	147.5151824951171	-208.8770294189453	1377.09765625	201.3878173828124	-220.1996154785157	1328.876098632812	253.5867919921874	-1058.557006835938	1318.71630859375	288.7369995117186	-1313.173095703125	1363.307739257812	263.1726074218748	32.65983963012692	1443.7314453125	248.2879638671874	-569.8010864257812	1645.27392578125	361.4118041992186	-555.9449462890625	1574.622802734375	224.8097381591795	-691.208251953125	1567.436279296875	201.2814331054686	-791.8735961914062	1441.016723632812	240.8933868408201	-503.2890625	1441.288940429688	227.8427734374999	-641.0314331054688	1379.542114257812	324.364776611328	117.33447265625	1427.61083984375	218.009292602539	-1394.395629882812	1409.314697265625	241.6208343505857	
